<svg width="125" height="126" viewBox="0 0 125 126" fill="none" xmlns="http://www.w3.org/2000/svg">
<path d="M7.46729 87.8L7.26728 87.5C-7.63272 61.2 1.0673 27.6 27.0673 12.1C30.6673 9.99998 34.3673 8.3 38.2673 7C37.9673 7.2 37.5673 7.39998 37.2673 7.59998C34.0673 9.49998 31.2673 11.8 28.8673 14.3C16.9673 26.8 21.5673 47.1 37.2673 54.5C41.3673 56.4 45.0673 59.6 47.4673 63.9C50.6673 69.3 51.3673 75.5 50.0673 81.2C48.6673 87.2 44.8673 92.7 39.2673 96C28.1673 102.6 13.9673 99 7.46729 87.8Z" fill="#101010"/>
<path d="M114.067 97.7L113.867 98C98.4673 124 65.1673 132.8 39.1673 117.5C35.5673 115.4 32.2673 112.9 29.3673 110.2C29.6673 110.4 29.9673 110.6 30.3673 110.8C30.5673 110.9 30.6673 111 30.8673 111.1C48.9673 121.4 71.4673 107.6 70.7673 86.8C70.6673 82.5 71.6673 78.2 73.8673 74.2C76.9673 68.7 81.9673 64.9999 87.5673 63.3999C93.4673 61.6999 99.9673 62.3 105.667 65.7C116.667 72.2 120.367 86.5 114.067 97.7Z" fill="#101010"/>
<path d="M122.867 64.7C121.867 44.3 99.1672 33.1 81.6672 43.7C78.1672 45.8 74.0672 47 69.7672 47C63.5672 47 57.8672 44.5 53.6672 40.5C49.2672 36.2 46.5673 30.2 46.5673 23.5C46.5673 10.6 56.8672 0.1 69.6672 0H70.0673C100.067 0.3 124.267 25 124.267 55.4C124.267 59.6 123.767 63.7 122.967 67.7C122.967 67.3 122.967 66.9 122.967 66.6C122.967 66 122.867 65.3 122.867 64.7Z" fill="#101010"/>
</svg>
